<svg width="512" height="512" viewBox="0 0 512 512" fill="none" xmlns="http://www.w3.org/2000/svg">
  <rect width="512" height="512" fill="transparent"/>
  <path d="M84 340C84 271 140 215 209 215H398C410 215 420 225 420 237V266C420 278 410 288 398 288H209C180 288 156 312 156 341V420C156 432 146 442 134 442H106C94 442 84 432 84 420V340Z" fill="#F5B000"/>
  <path d="M428 172C428 184 418 194 406 194H189C120 194 64 250 64 319V420C64 432 54 442 42 442H26C14 442 4 432 4 420V319C4 209 94 120 204 120H406C418 120 428 130 428 142V172Z" fill="#F5B000"/>
  <path d="M84 350C84 338 94 328 106 328H323C392 328 448 272 448 203V128C448 116 458 106 470 106H486C498 106 508 116 508 128V203C508 313 418 402 308 402H106C94 402 84 392 84 380V350Z" fill="#F5B000"/>
  <path d="M334 50C334 38 344 28 356 28H468C480 28 490 38 490 50V66C490 73 487 80 481 84L408 140C404 143 399 145 394 145H356C344 145 334 135 334 123V50Z" fill="#F5B000"/>
</svg>
